<svg xmlns="http://www.w3.org/2000/svg" xmlns:xlink="http://www.w3.org/1999/xlink" version="1.1" width="360px" height="360px" style="shape-rendering:geometricPrecision; text-rendering:geometricPrecision; image-rendering:optimizeQuality; fill-rule:evenodd; clip-rule:evenodd">
    <g>
        <path style="opacity:0" fill="#fffefe" d="M -0.5,-0.5 C 119.5,-0.5 239.5,-0.5 359.5,-0.5C 359.5,119.5 359.5,239.5 359.5,359.5C 239.5,359.5 119.5,359.5 -0.5,359.5C -0.5,239.5 -0.5,119.5 -0.5,-0.5 Z" />
    </g>
    <g>
        <path style="opacity:1;fill: #6d92b3b8;" fill="#fdda02" d="M 164.5,26.5 C 226.567,22.619 274.734,46.2856 309,97.5C 334.506,142.444 337.173,188.777 317,236.5C 293.985,283.163 256.819,311.329 205.5,321C 149.788,328.211 103.621,310.711 67,268.5C 36.4254,228.418 27.092,183.751 39,134.5C 59.4659,73.5256 101.299,37.5256 164.5,26.5 Z" />
    </g>
    <g>
        <path style="opacity:1" fill="#0e0b01" d="M 149.5,255.5 C 133.578,256.484 117.578,256.817 101.5,256.5C 100.455,252.48 99.4546,248.313 98.5,244C 106.036,228.356 109.369,211.856 108.5,194.5C 106.833,194.5 105.167,194.5 103.5,194.5C 103.5,192.5 103.5,190.5 103.5,188.5C 105.167,188.5 106.833,188.5 108.5,188.5C 108.663,186.143 108.497,183.81 108,181.5C 105.667,179.833 103.333,178.167 101,176.5C 100.5,168.841 100.334,161.174 100.5,153.5C 104.167,153.5 107.833,153.5 111.5,153.5C 119.174,126.992 136.174,109.492 162.5,101C 181.299,96.5999 199.299,98.7666 216.5,107.5C 221.819,89.4549 233.152,83.9549 250.5,91C 261.339,99.8685 263.172,110.368 256,122.5C 255.501,127.155 255.334,131.821 255.5,136.5C 257.167,136.5 258.833,136.5 260.5,136.5C 260.5,138.5 260.5,140.5 260.5,142.5C 258.833,142.5 257.167,142.5 255.5,142.5C 255.248,151.213 255.748,159.88 257,168.5C 259.417,176.497 262.25,184.331 265.5,192C 264.417,196.496 263.417,200.996 262.5,205.5C 257.125,205.172 251.792,205.505 246.5,206.5C 227.721,238.167 200.055,250.667 163.5,244C 159.159,242.309 154.826,240.976 150.5,240C 151.293,241.085 151.96,242.252 152.5,243.5C 150.871,247.351 149.871,251.351 149.5,255.5 Z" />
    </g>
    <g>
        <path style="opacity:1;fill: white;" fill="#f8d500" d="M 235.5,92.5 C 248.663,92.8278 255.163,99.4945 255,112.5C 250.297,124.961 241.797,128.461 229.5,123C 218.612,110.263 220.612,100.096 235.5,92.5 Z" />
    </g>
    <g>
        <path style="fill: white;opacity:1;" fill="#fad700" d="M 215.5,204.5 C 223.833,205.167 232.167,205.833 240.5,206.5C 224.417,232.372 201.084,243.538 170.5,240C 161.372,238.628 153.205,235.128 146,229.5C 142.077,218.175 140.577,206.508 141.5,194.5C 143.167,194.5 144.833,194.5 146.5,194.5C 146.5,192.5 146.5,190.5 146.5,188.5C 144.833,188.5 143.167,188.5 141.5,188.5C 141.337,186.143 141.503,183.81 142,181.5C 144.333,179.833 146.667,178.167 149,176.5C 149.5,168.841 149.666,161.174 149.5,153.5C 142.167,153.5 134.833,153.5 127.5,153.5C 127.5,157.167 127.5,160.833 127.5,164.5C 125.833,164.5 124.167,164.5 122.5,164.5C 122.5,160.833 122.5,157.167 122.5,153.5C 120.473,153.662 118.473,153.495 116.5,153C 130.481,116.837 156.814,100.837 195.5,105C 203.544,106.941 211.044,110.107 218,114.5C 218.759,117.785 220.092,120.785 222,123.5C 222.499,127.821 222.666,132.154 222.5,136.5C 220.833,136.5 219.167,136.5 217.5,136.5C 217.5,138.5 217.5,140.5 217.5,142.5C 219.167,142.5 220.833,142.5 222.5,142.5C 224.035,160.026 220.368,176.359 211.5,191.5C 213.011,195.905 214.345,200.238 215.5,204.5 Z" />
    </g>
    <g>
        <path style="opacity:1;" fill="#0f0b01" d="M 200.5,114.5 C 211.523,115.232 215.69,120.899 213,131.5C 207.292,137.715 201.292,138.048 195,132.5C 193.092,129.794 192.259,126.794 192.5,123.5C 176.192,120.824 161.859,124.824 149.5,135.5C 148.019,134.52 146.685,133.353 145.5,132C 159.49,119.468 175.657,115.301 194,119.5C 196.341,117.984 198.508,116.317 200.5,114.5 Z" />
    </g>
    <g>
        <path style="opacity:1;fill: #d81f26;" fill="#edcc00" d="M 200.5,120.5 C 208.162,120.027 210.496,123.193 207.5,130C 200.735,132.243 197.902,129.743 199,122.5C 199.717,121.956 200.217,121.289 200.5,120.5 Z" />
    </g>
    <g>
        <path style="opacity:1" fill="#847100" d="M 229.5,129.5 C 228.532,131.607 228.198,133.941 228.5,136.5C 227.2,133.976 227.2,131.309 228.5,128.5C 229.107,128.624 229.44,128.957 229.5,129.5 Z" />
    </g>
    <g>
        <path style="opacity:1;fill: white;" fill="#fbd800" d="M 228.5,136.5 C 228.198,133.941 228.532,131.607 229.5,129.5C 236.192,132.44 242.692,132.107 249,128.5C 249.497,131.146 249.664,133.813 249.5,136.5C 242.5,136.5 235.5,136.5 228.5,136.5 Z" />
    </g>
    <g>
        <path style="opacity:1" fill="#0c0800" d="M 139.5,138.5 C 144.584,140.371 144.751,142.704 140,145.5C 138.605,145.22 137.438,144.553 136.5,143.5C 137.26,141.64 138.26,139.973 139.5,138.5 Z" />
    </g>
    <g>
        <path style="opacity:1;fill: white;" fill="#f9d700" d="M 218.5,195.5 C 227.986,194.506 237.652,194.173 247.5,194.5C 247.5,192.5 247.5,190.5 247.5,188.5C 237.985,188.827 228.652,188.494 219.5,187.5C 224.364,176.71 227.031,165.377 227.5,153.5C 231.167,153.5 234.833,153.5 238.5,153.5C 238.5,151.5 238.5,149.5 238.5,147.5C 234.833,147.5 231.167,147.5 227.5,147.5C 227.5,145.833 227.5,144.167 227.5,142.5C 234.833,142.5 242.167,142.5 249.5,142.5C 249.5,144.167 249.5,145.833 249.5,147.5C 247.833,147.5 246.167,147.5 244.5,147.5C 244.5,149.5 244.5,151.5 244.5,153.5C 246.167,153.5 247.833,153.5 249.5,153.5C 250.539,165.536 253.539,177.036 258.5,188C 256.527,188.495 254.527,188.662 252.5,188.5C 252.5,190.5 252.5,192.5 252.5,194.5C 254.924,194.192 257.257,194.526 259.5,195.5C 258.754,196.736 258.421,198.07 258.5,199.5C 245.167,199.5 231.833,199.5 218.5,199.5C 218.5,198.167 218.5,196.833 218.5,195.5 Z" />
    </g>
    <g>
        <path style="opacity:1;fill: white;" fill="#f4d200" d="M 106.5,158.5 C 110.167,158.5 113.833,158.5 117.5,158.5C 117.5,162.167 117.5,165.833 117.5,169.5C 122.833,169.5 128.167,169.5 133.5,169.5C 133.5,165.833 133.5,162.167 133.5,158.5C 137.167,158.5 140.833,158.5 144.5,158.5C 147.824,174.354 141.491,180.687 125.5,177.5C 109.426,180.76 103.093,174.426 106.5,158.5 Z" />
    </g>
    <g>
        <path style="opacity:1;fill: white;" fill="#fddb00" d="M 114.5,183.5 C 121.5,183.5 128.5,183.5 135.5,183.5C 135.5,185.167 135.5,186.833 135.5,188.5C 128.5,188.5 121.5,188.5 114.5,188.5C 114.5,186.833 114.5,185.167 114.5,183.5 Z" />
    </g>
    <g>
        <path style="opacity:1" fill="#463b01" d="M 219.5,187.5 C 228.652,188.494 237.985,188.827 247.5,188.5C 247.5,190.5 247.5,192.5 247.5,194.5C 237.652,194.173 227.986,194.506 218.5,195.5C 217.957,195.44 217.624,195.107 217.5,194.5C 227.144,193.502 236.81,193.168 246.5,193.5C 246.5,192.167 246.5,190.833 246.5,189.5C 237.143,189.832 227.81,189.498 218.5,188.5C 218.624,187.893 218.957,187.56 219.5,187.5 Z" />
    </g>
    <g>
        <path style="opacity:1;fill: white;" fill="#fad700" d="M 104.5,246.5 C 114.167,246.5 123.833,246.5 133.5,246.5C 133.5,244.5 133.5,242.5 133.5,240.5C 124.167,240.5 114.833,240.5 105.5,240.5C 110.248,229.173 113.248,217.507 114.5,205.5C 118.167,205.5 121.833,205.5 125.5,205.5C 125.5,203.5 125.5,201.5 125.5,199.5C 121.833,199.5 118.167,199.5 114.5,199.5C 114.5,197.833 114.5,196.167 114.5,194.5C 121.5,194.5 128.5,194.5 135.5,194.5C 135.5,196.167 135.5,197.833 135.5,199.5C 133.833,199.5 132.167,199.5 130.5,199.5C 130.5,201.5 130.5,203.5 130.5,205.5C 132.5,205.5 134.5,205.5 136.5,205.5C 136.747,217.402 139.414,228.736 144.5,239.5C 142.604,240.466 140.604,240.799 138.5,240.5C 138.5,242.5 138.5,244.5 138.5,246.5C 140.833,246.5 143.167,246.5 145.5,246.5C 145.579,247.93 145.246,249.264 144.5,250.5C 131.513,251.666 118.513,251.833 105.5,251C 104.62,249.644 104.286,248.144 104.5,246.5 Z" />
    </g>
    <g>
        <path style="opacity:1" fill="#4c4102" d="M 114.5,199.5 C 118.167,199.5 121.833,199.5 125.5,199.5C 125.5,201.5 125.5,203.5 125.5,205.5C 121.833,205.5 118.167,205.5 114.5,205.5C 117.625,204.521 120.958,204.187 124.5,204.5C 124.5,203.167 124.5,201.833 124.5,200.5C 120.958,200.813 117.625,200.479 114.5,199.5 Z" />
    </g>
    <g>
        <path style="opacity:1" fill="#4e4200" d="M 215.5,204.5 C 224.192,204.169 232.859,204.502 241.5,205.5C 241.376,206.107 241.043,206.44 240.5,206.5C 232.167,205.833 223.833,205.167 215.5,204.5 Z" />
    </g>
    <g>
        <path style="opacity:1" fill="#090600" d="M 155.5,208.5 C 165.351,206.698 170.351,210.698 170.5,220.5C 180.714,222.32 190.714,221.486 200.5,218C 205.52,214.995 210.52,212.328 215.5,210C 217.007,210.837 217.507,212.004 217,213.5C 203.508,224.915 188.008,228.915 170.5,225.5C 168.394,226.43 166.394,227.596 164.5,229C 154.178,230.344 149.345,225.844 150,215.5C 150.967,212.379 152.8,210.046 155.5,208.5 Z" />
    </g>
    <g>
        <path style="opacity:1;fill: #d81f26;" fill="#edcc00" d="M 157.5,213.5 C 163.665,212.829 166.165,215.496 165,221.5C 158.412,226.509 155.078,224.842 155,216.5C 156.045,215.627 156.878,214.627 157.5,213.5 Z" />
    </g>
    <g>
        <path style="opacity:1" fill="#433800" d="M 105.5,240.5 C 114.833,240.5 124.167,240.5 133.5,240.5C 133.5,242.5 133.5,244.5 133.5,246.5C 123.833,246.5 114.167,246.5 104.5,246.5C 113.652,245.506 122.985,245.173 132.5,245.5C 132.5,244.167 132.5,242.833 132.5,241.5C 123.318,241.827 114.318,241.493 105.5,240.5 Z" />
    </g>
    <g>
        <path style="opacity:1" fill="#4e4200" d="M 149.5,255.5 C 141.862,256.831 133.862,257.498 125.5,257.5C 117.326,257.5 109.326,257.166 101.5,256.5C 117.578,256.817 133.578,256.484 149.5,255.5 Z" />
    </g>
</svg>